<?xml version="1.0" encoding="UTF-8"?>
<svg id="Capa_2" data-name="Capa 2" xmlns="http://www.w3.org/2000/svg" viewBox="0 0 566.85 24.55">
  <defs>
    <style>
      .cls-1 {
        fill: #fff;
      }
    </style>
  </defs>
  <g id="Capa_1-2" data-name="Capa 1">
    <g>
      <path class="cls-1" d="M7.74.45c4.38,0,6.01.67,7.29,1.73,1.85,1.53,2.78,3.87,2.78,6.27s-.99,4.92-2.49,6.2c-1.63,1.38-3.23,2.05-6.91,2.05h-2.37v7.42H0V.45h7.74ZM6.04,11.38h2.21c.58,0,1.53,0,2.33-.35.8-.35,1.44-1.09,1.44-2.49s-.67-2.08-1.5-2.43-1.82-.35-2.49-.35h-1.98v5.63Z"/>
      <path class="cls-1" d="M29.5.45v14.29c0,.8.03,1.92.42,2.85.42.93,1.18,1.66,2.65,1.66s2.27-.67,2.62-1.53c.38-.9.38-2.05.38-2.97V.45h6.04v14.29c0,3.96-.86,5.72-2.37,7.26-1.54,1.57-3.68,2.56-6.62,2.56-1.73,0-4.86-.42-6.81-2.53-1.95-2.14-2.37-3.8-2.37-7.29V.45h6.04Z"/>
      <path class="cls-1" d="M49.19.45h6.04v18.35h7v5.31h-13.04V.45Z"/>
      <path class="cls-1" d="M72.46,16.27c0,2.75,1.69,3.23,2.46,3.23,1.44,0,2.3-1.18,2.3-2.27,0-1.25-.99-1.63-4.64-3.17-1.66-.67-5.79-2.33-5.79-6.78,0-4.76,4.32-7.29,8.28-7.29,3.26,0,7.86,1.66,7.96,7.35h-5.98c-.13-.8-.32-2.3-2.17-2.3-1.05,0-2.08.73-2.08,1.85s.64,1.37,4.89,3.29c4.41,1.98,5.53,4.03,5.53,6.78,0,3.77-1.98,7.58-8.25,7.58s-8.69-3.64-8.54-8.28h6.01Z"/>
      <path class="cls-1" d="M94,24.1h-6.55L96.81.45h5.21l9.08,23.66h-6.62l-1.12-3.42h-8.28l-1.09,3.42ZM99.15,7.64l-2.56,8.25h5.21l-2.65-8.25Z"/>
      <path class="cls-1" d="M137.53.45c4.38,0,6.01.67,7.29,1.73,1.85,1.53,2.78,3.87,2.78,6.27s-.99,4.92-2.49,6.2c-1.63,1.38-3.23,2.05-6.91,2.05h-2.37v7.42h-6.04V.45h7.74ZM135.84,11.38h2.21c.58,0,1.53,0,2.33-.35.8-.35,1.44-1.09,1.44-2.49s-.67-2.08-1.5-2.43-1.82-.35-2.49-.35h-1.98v5.63Z"/>
      <path class="cls-1" d="M155.14,24.1h-6.55L157.96.45h5.21l9.08,23.66h-6.62l-1.12-3.42h-8.28l-1.09,3.42ZM160.29,7.64l-2.56,8.25h5.21l-2.65-8.25Z"/>
      <path class="cls-1" d="M177.87.45h7.74c3.71,0,6.01.67,7.32,1.69,1.98,1.53,2.88,3.87,2.88,6.46,0,1.82-.51,3.23-1.18,4.28-.8,1.25-1.95,2.05-3.07,2.53l4.89,8.7h-6.23l-6.17-11.41h.99c1.53,0,2.84-.13,3.64-.64.74-.48,1.34-1.6,1.34-2.91s-.61-2.24-1.41-2.75c-.67-.42-1.63-.64-2.46-.64h-2.24v18.35h-6.04V.45Z"/>
      <path class="cls-1" d="M206.63,24.1h-6.55L209.45.45h5.21l9.08,23.66h-6.62l-1.12-3.42h-8.28l-1.09,3.42ZM211.78,7.64l-2.56,8.25h5.21l-2.65-8.25Z"/>
      <path class="cls-1" d="M241.41,12.53c0-7.74,5.95-12.53,12.47-12.53,7.29,0,12.5,5.69,12.5,12.28s-5.18,12.28-12.53,12.28-12.43-5.91-12.43-11.99v-.03ZM247.45,12.24c0,3.61,2.46,7,6.52,7,4.28,0,6.36-3.9,6.36-6.94s-2.08-7-6.42-7-6.46,3.58-6.46,6.91v.03Z"/>
      <path class="cls-1" d="M272.83.45h8.7c2.43,0,4.38.54,5.72,1.6,1.38,1.02,2.11,2.59,2.11,4.6,0,1.82-.83,3.68-2.75,4.76,3.8,1.34,3.9,4.51,3.9,5.5,0,1.89-.74,3.96-2.17,5.15-2.17,1.82-3.74,2.05-7.74,2.05h-7.77V.45ZM278.87,9.43h2.14c.42,0,1.05,0,1.6-.22.54-.26.96-.74.96-1.66s-.42-1.34-.93-1.57c-.51-.22-1.15-.22-1.63-.22h-2.14v3.68ZM278.87,18.8h2.84c.38,0,1.15,0,1.79-.29.67-.29,1.21-.86,1.21-1.98,0-1.02-.51-1.54-1.15-1.79-.61-.26-1.38-.26-1.85-.26h-2.84v4.32Z"/>
      <path class="cls-1" d="M299.55,5.75h-4.67V.45h15.34v5.31h-4.64v18.35h-6.04V5.75Z"/>
      <path class="cls-1" d="M315.85.45h13.39v5.31h-7.35v3.68h7.13v5.31h-7.13v4.06h7.35v5.31h-13.39V.45Z"/>
      <path class="cls-1" d="M350.21,14.86l-.13-14.42h5.79v23.66h-5.24l-9.05-14.26.13,14.26h-5.79V.45h5.21l9.08,14.42Z"/>
      <path class="cls-1" d="M363.37.45h13.39v5.31h-7.35v3.68h7.13v5.31h-7.13v4.06h7.35v5.31h-13.39V.45Z"/>
      <path class="cls-1" d="M383.45.45h7.74c3.71,0,6.01.67,7.32,1.69,1.98,1.53,2.88,3.87,2.88,6.46,0,1.82-.51,3.23-1.18,4.28-.8,1.25-1.95,2.05-3.07,2.53l4.89,8.7h-6.23l-6.17-11.41h.99c1.53,0,2.84-.13,3.64-.64.74-.48,1.34-1.6,1.34-2.91s-.61-2.24-1.41-2.75c-.67-.42-1.63-.64-2.46-.64h-2.24v18.35h-6.04V.45Z"/>
      <path class="cls-1" d="M421.04,5.75h-4.67V.45h15.34v5.31h-4.64v18.35h-6.04V5.75Z"/>
      <path class="cls-1" d="M443.31.45v14.29c0,.8.03,1.92.42,2.85.42.93,1.18,1.66,2.65,1.66s2.27-.67,2.62-1.53c.38-.9.38-2.05.38-2.97V.45h6.04v14.29c0,3.96-.86,5.72-2.37,7.26-1.54,1.57-3.68,2.56-6.62,2.56-1.73,0-4.86-.42-6.81-2.53-1.95-2.14-2.37-3.8-2.37-7.29V.45h6.04Z"/>
      <path class="cls-1" d="M475.91.45h12.92v5.31h-6.87v4.03h6.62v5.31h-6.62v9.02h-6.04V.45Z"/>
      <path class="cls-1" d="M494.26,12.53c0-7.74,5.95-12.53,12.47-12.53,7.29,0,12.5,5.69,12.5,12.28s-5.18,12.28-12.53,12.28-12.43-5.91-12.43-11.99v-.03ZM500.3,12.24c0,3.61,2.46,7,6.52,7,4.28,0,6.36-3.9,6.36-6.94s-2.08-7-6.42-7-6.46,3.58-6.46,6.91v.03Z"/>
      <path class="cls-1" d="M527.56,5.75h-4.67V.45h15.34v5.31h-4.64v18.35h-6.04V5.75Z"/>
      <path class="cls-1" d="M541.88,12.53c0-7.74,5.95-12.53,12.47-12.53,7.29,0,12.5,5.69,12.5,12.28s-5.18,12.28-12.53,12.28-12.43-5.91-12.43-11.99v-.03ZM547.92,12.24c0,3.61,2.46,7,6.52,7,4.28,0,6.36-3.9,6.36-6.94s-2.08-7-6.42-7-6.46,3.58-6.46,6.91v.03Z"/>
    </g>
  </g>
</svg>