<?xml version="1.0" encoding="UTF-8"?>
<svg id="Capa_2" data-name="Capa 2" xmlns="http://www.w3.org/2000/svg" viewBox="0 0 692.73 71.15">
  <defs>
    <style>
      .cls-1 {
        fill: #fff;
      }
    </style>
  </defs>
  <g id="Capa_1-2" data-name="Capa 1">
    <g>
      <path class="cls-1" d="M18.21,30.09l.18-16.62-.06-.06-4.74,16.68h-3.75L5.04,13.26l.18,16.83H0V7.89h7.29l4.41,14.61h.06l4.35-14.61h7.32v22.2h-5.22Z"/>
      <path class="cls-1" d="M44.76,30.09l-1.08-3.21h-7.71l-1.17,3.21h-6.09l8.91-22.2h4.47l8.82,22.2h-6.15ZM39.9,14.82l-.09-.03-2.28,7.59h4.65l-2.28-7.56Z"/>
      <path class="cls-1" d="M69.99,30.09l-8.52-13.56.15,13.56h-5.43V7.89h4.89l8.64,14.04-.24-14.04h5.43v22.2h-4.92Z"/>
      <path class="cls-1" d="M84.63,30.09V12.87h-4.38v-4.98h14.4v4.98h-4.35v17.22h-5.67Z"/>
      <path class="cls-1" d="M99.93,30.09V7.89h12.33v4.98h-6.9v3.45h6.69v4.98h-6.69v3.81h6.9v4.98h-12.33ZM103.47,6.81l-1.41-2.94,7.2-3.87,1.59,3.54-7.38,3.27Z"/>
      <path class="cls-1" d="M132.57,30.09l-8.52-13.56.15,13.56h-5.43V7.89h4.89l8.64,14.04-.24-14.04h5.43v22.2h-4.92Z"/>
      <path class="cls-1" d="M156.81,30.09V7.89h7.5c2.37-.03,4.14.3,5.31.84,2.4,1.11,3.9,3.66,3.9,6.66,0,4.11-2.28,7.74-8.64,7.74h-2.64v6.96h-5.43ZM164.67,18.15c2.28,0,3.42-.78,3.42-2.67s-1.11-2.61-3.63-2.61h-2.22v5.28h2.43Z"/>
      <path class="cls-1" d="M189.51,30.09l-5.13-7.17h-.06v7.17h-5.43V7.89h7.26c2.31,0,4.08.3,5.25.81,2.4,1.08,4.08,3.69,4.08,6.84,0,3.51-2.1,6.39-5.52,6.99l6.03,7.56h-6.48ZM186.42,19.05c2.25,0,3.63-1.05,3.63-3.18,0-1.92-1.44-3-3.57-3h-2.16v6.18h2.1Z"/>
      <path class="cls-1" d="M201.48,30.09V7.89h12.33v4.98h-6.9v3.45h6.69v4.98h-6.69v3.81h6.9v4.98h-12.33Z"/>
      <path class="cls-1" d="M229.02,14.37c-.24-1.59-.9-2.16-2.01-2.16-1.05,0-1.95.75-1.95,1.74,0,1.32,1.2,1.92,3.63,2.97,4.89,2.1,6.12,3.87,6.12,6.78,0,4.29-2.94,6.81-7.74,6.81s-8.01-2.52-8.01-7.29v-.48h5.64c.03,1.83.93,3.03,2.34,3.03,1.17,0,2.13-.93,2.13-2.13,0-1.77-2.46-2.55-4.47-3.36-3.63-1.47-5.28-3.39-5.28-6.27,0-3.78,3.66-6.54,7.74-6.54,1.47,0,2.76.33,3.93.93,2.37,1.23,3.51,3,3.54,5.97h-5.61Z"/>
      <path class="cls-1" d="M240.51,30.09V7.89h5.67v22.2h-5.67Z"/>
      <path class="cls-1" d="M252.24,19.5c0-6.87,4.95-12.03,11.7-12.03s11.73,5.01,11.73,11.37-5.1,11.67-11.46,11.67-11.97-4.44-11.97-11.01ZM270,19.02c0-3.48-2.49-6.57-6.06-6.57s-6.03,2.97-6.03,6.48,2.49,6.6,6.12,6.6,5.97-2.97,5.97-6.51Z"/>
      <path class="cls-1" d="M295.53,30.09l-8.52-13.56.15,13.56h-5.43V7.89h4.89l8.64,14.04-.24-14.04h5.43v22.2h-4.92Z"/>
      <path class="cls-1" d="M321.81,30.09l-1.08-3.21h-7.71l-1.17,3.21h-6.09l8.91-22.2h4.47l8.82,22.2h-6.15ZM316.95,14.82l-.09-.03-2.28,7.59h4.65l-2.28-7.56Z"/>
      <path class="cls-1" d="M332.94,30.09V7.89h7.56c2.76,0,4.95.48,6.51,1.35,3.15,1.8,5.13,5.22,5.13,9.75,0,7.32-4.32,11.1-11.25,11.1h-7.95ZM341.16,25.11c3.27,0,5.31-2.04,5.31-6.09s-2.01-6.15-5.28-6.15h-2.58v12.24h2.55Z"/>
      <path class="cls-1" d="M371.31,30.09l-1.08-3.21h-7.71l-1.17,3.21h-6.09l8.91-22.2h4.47l8.82,22.2h-6.15ZM366.45,14.82l-.09-.03-2.28,7.59h4.65l-2.28-7.56Z"/>
      <path class="cls-1" d="M395.16,30.09V7.89h5.67v17.22h6.57v4.98h-12.24Z"/>
      <path class="cls-1" d="M427.83,30.09l-1.08-3.21h-7.71l-1.17,3.21h-6.09l8.91-22.2h4.47l8.82,22.2h-6.15ZM422.97,14.82l-.09-.03-2.28,7.59h4.65l-2.28-7.56Z"/>
      <path class="cls-1" d="M451.53,30.09V7.89h5.67v22.2h-5.67Z"/>
      <path class="cls-1" d="M482.43,30.09l.18-16.62-.06-.06-4.74,16.68h-3.75l-4.8-16.83.18,16.83h-5.22V7.89h7.29l4.41,14.61h.06l4.35-14.61h7.32v22.2h-5.22Z"/>
      <path class="cls-1" d="M508.98,30.09l-1.08-3.21h-7.71l-1.17,3.21h-6.09l8.91-22.2h4.47l8.82,22.2h-6.15ZM504.12,14.82l-.09-.03-2.28,7.59h4.65l-2.28-7.56Z"/>
      <path class="cls-1" d="M541.59,18.72c0,5.97-4.38,11.82-11.85,11.82-6.57,0-11.79-5.13-11.79-11.64s5.43-11.43,11.88-11.43c5.01,0,9.84,3.39,11.1,7.86h-6.36c-1.05-1.83-2.76-2.88-4.89-2.88-3.57,0-6.06,2.88-6.06,6.45s2.34,6.66,6.09,6.66c2.64,0,4.62-1.29,5.31-3.57h-6.63v-4.53h13.2v1.26Z"/>
      <path class="cls-1" d="M547.53,30.09V7.89h12.33v4.98h-6.9v3.45h6.69v4.98h-6.69v3.81h6.9v4.98h-12.33Z"/>
      <path class="cls-1" d="M580.17,30.09l-8.52-13.56.15,13.56h-5.43V7.89h4.89l8.64,14.04-.24-14.04h5.43v22.2h-4.92Z"/>
      <path class="cls-1" d="M604.41,30.09V7.89h7.5c2.37-.03,4.14.3,5.31.84,2.4,1.11,3.9,3.66,3.9,6.66,0,4.11-2.28,7.74-8.64,7.74h-2.64v6.96h-5.43ZM612.27,18.15c2.28,0,3.42-.78,3.42-2.67s-1.11-2.61-3.63-2.61h-2.22v5.28h2.43Z"/>
      <path class="cls-1" d="M638.25,30.09l-1.08-3.21h-7.71l-1.17,3.21h-6.09l8.91-22.2h4.47l8.82,22.2h-6.15ZM633.39,14.82l-.09-.03-2.28,7.59h4.65l-2.28-7.56Z"/>
      <path class="cls-1" d="M660.3,30.09l-5.13-7.17h-.06v7.17h-5.43V7.89h7.26c2.31,0,4.08.3,5.25.81,2.4,1.08,4.08,3.69,4.08,6.84,0,3.51-2.1,6.39-5.52,6.99l6.03,7.56h-6.48ZM657.21,19.05c2.25,0,3.63-1.05,3.63-3.18,0-1.92-1.44-3-3.57-3h-2.16v6.18h2.1Z"/>
      <path class="cls-1" d="M686.58,30.09l-1.08-3.21h-7.71l-1.17,3.21h-6.09l8.91-22.2h4.47l8.82,22.2h-6.15ZM681.72,14.82l-.09-.03-2.28,7.59h4.65l-2.28-7.56Z"/>
      <path class="cls-1" d="M84.85,59.33c0,5.97-4.38,11.82-11.85,11.82-6.57,0-11.79-5.13-11.79-11.64s5.43-11.43,11.88-11.43c5.01,0,9.84,3.39,11.1,7.86h-6.36c-1.05-1.83-2.76-2.88-4.89-2.88-3.57,0-6.06,2.88-6.06,6.45s2.34,6.66,6.09,6.66c2.64,0,4.62-1.29,5.31-3.57h-6.63v-4.53h13.2v1.26Z"/>
      <path class="cls-1" d="M102.1,48.5h5.67v13.59c0,2.31-.36,4.05-1.11,5.25-1.47,2.37-3.96,3.78-7.32,3.78-1.86,0-3.45-.36-4.74-1.11-2.61-1.53-3.87-3.6-3.87-7.89v-13.62h5.67v13.53c0,2.76.87,4.11,2.88,4.11s2.82-.96,2.82-4.08v-13.56Z"/>
      <path class="cls-1" d="M127.84,70.7l-1.08-3.21h-7.71l-1.17,3.21h-6.09l8.91-22.2h4.47l8.82,22.2h-6.15ZM122.98,55.43l-.09-.03-2.28,7.59h4.65l-2.28-7.56Z"/>
      <path class="cls-1" d="M149.89,70.7l-5.13-7.17h-.06v7.17h-5.43v-22.2h7.26c2.31,0,4.08.3,5.25.81,2.4,1.08,4.08,3.69,4.08,6.84,0,3.51-2.1,6.39-5.52,6.99l6.03,7.56h-6.48ZM146.8,59.66c2.25,0,3.63-1.05,3.63-3.18,0-1.92-1.44-3-3.57-3h-2.16v6.18h2.1Z"/>
      <path class="cls-1" d="M161.56,70.7v-22.2h7.56c2.76,0,4.95.48,6.51,1.35,3.15,1.8,5.13,5.22,5.13,9.75,0,7.32-4.32,11.1-11.25,11.1h-7.95ZM169.78,65.72c3.27,0,5.31-2.04,5.31-6.09s-2.01-6.15-5.28-6.15h-2.58v12.24h2.55Z"/>
      <path class="cls-1" d="M199.93,70.7l-1.08-3.21h-7.71l-1.17,3.21h-6.09l8.91-22.2h4.47l8.82,22.2h-6.15ZM195.07,55.43l-.09-.03-2.28,7.59h4.65l-2.28-7.56Z"/>
      <path class="cls-1" d="M221.98,70.7l-5.13-7.17h-.06v7.17h-5.43v-22.2h7.26c2.31,0,4.08.3,5.25.81,2.4,1.08,4.08,3.69,4.08,6.84,0,3.51-2.1,6.39-5.52,6.99l6.03,7.56h-6.48ZM218.89,59.66c2.25,0,3.63-1.05,3.63-3.18,0-1.92-1.44-3-3.57-3h-2.16v6.18h2.1Z"/>
      <path class="cls-1" d="M234.1,70.7v-22.2h5.67v17.22h6.57v4.98h-12.24Z"/>
      <path class="cls-1" d="M266.77,70.7l-1.08-3.21h-7.71l-1.17,3.21h-6.09l8.91-22.2h4.47l8.82,22.2h-6.15ZM261.91,55.43l-.09-.03-2.28,7.59h4.65l-2.28-7.56Z"/>
      <path class="cls-1" d="M290.47,70.7v-22.2h12.33v4.98h-6.9v3.45h6.69v4.98h-6.69v3.81h6.9v4.98h-12.33Z"/>
      <path class="cls-1" d="M323.11,70.7l-8.52-13.56.15,13.56h-5.43v-22.2h4.89l8.64,14.04-.24-14.04h5.43v22.2h-4.92Z"/>
      <path class="cls-1" d="M349.28,70.7v-17.22h-4.38v-4.98h14.4v4.98h-4.35v17.22h-5.67Z"/>
      <path class="cls-1" d="M375.89,48.5h5.67v13.59c0,2.31-.36,4.05-1.11,5.25-1.47,2.37-3.96,3.78-7.32,3.78-1.86,0-3.45-.36-4.74-1.11-2.61-1.53-3.87-3.6-3.87-7.89v-13.62h5.67v13.53c0,2.76.87,4.11,2.88,4.11s2.82-.96,2.82-4.08v-13.56Z"/>
      <path class="cls-1" d="M400.49,70.7v-22.2h7.56c2.76,0,4.95.48,6.51,1.35,3.15,1.8,5.13,5.22,5.13,9.75,0,7.32-4.32,11.1-11.25,11.1h-7.95ZM408.71,65.72c3.27,0,5.31-2.04,5.31-6.09s-2.01-6.15-5.28-6.15h-2.58v12.24h2.55Z"/>
      <path class="cls-1" d="M426.05,70.7v-22.2h5.67v22.2h-5.67Z"/>
      <path class="cls-1" d="M447.44,54.98c-.24-1.59-.9-2.16-2.01-2.16-1.05,0-1.95.75-1.95,1.74,0,1.32,1.2,1.92,3.63,2.97,4.89,2.1,6.12,3.87,6.12,6.78,0,4.29-2.94,6.81-7.74,6.81s-8.01-2.52-8.01-7.29v-.48h5.64c.03,1.83.93,3.03,2.34,3.03,1.17,0,2.13-.93,2.13-2.13,0-1.77-2.46-2.55-4.47-3.36-3.63-1.47-5.28-3.39-5.28-6.27,0-3.78,3.66-6.54,7.74-6.54,1.47,0,2.76.33,3.93.93,2.37,1.23,3.51,3,3.54,5.97h-5.61Z"/>
      <path class="cls-1" d="M458.93,70.7v-22.2h7.5c2.37-.03,4.14.3,5.31.84,2.4,1.11,3.9,3.66,3.9,6.66,0,4.11-2.28,7.74-8.64,7.74h-2.64v6.96h-5.43ZM466.78,58.76c2.28,0,3.42-.78,3.42-2.67s-1.11-2.61-3.63-2.61h-2.22v5.28h2.43Z"/>
      <path class="cls-1" d="M480.65,60.11c0-6.87,4.95-12.03,11.7-12.03s11.73,5.01,11.73,11.37-5.1,11.67-11.46,11.67-11.97-4.44-11.97-11.01ZM498.4,59.63c0-3.48-2.49-6.57-6.06-6.57s-6.03,2.97-6.03,6.48,2.49,6.6,6.12,6.6,5.97-2.97,5.97-6.51Z"/>
      <path class="cls-1" d="M518.84,54.98c-.24-1.59-.9-2.16-2.01-2.16-1.05,0-1.95.75-1.95,1.74,0,1.32,1.2,1.92,3.63,2.97,4.89,2.1,6.12,3.87,6.12,6.78,0,4.29-2.94,6.81-7.74,6.81s-8.01-2.52-8.01-7.29v-.48h5.64c.03,1.83.93,3.03,2.34,3.03,1.17,0,2.13-.93,2.13-2.13,0-1.77-2.46-2.55-4.47-3.36-3.63-1.47-5.28-3.39-5.28-6.27,0-3.78,3.66-6.54,7.74-6.54,1.47,0,2.76.33,3.93.93,2.37,1.23,3.51,3,3.54,5.97h-5.61Z"/>
      <path class="cls-1" d="M530.33,70.7v-22.2h5.67v22.2h-5.67Z"/>
      <path class="cls-1" d="M545.69,70.7v-17.22h-4.38v-4.98h14.4v4.98h-4.35v17.22h-5.67Z"/>
      <path class="cls-1" d="M560.98,70.7v-22.2h5.67v22.2h-5.67Z"/>
      <path class="cls-1" d="M579.56,70.7l-7.41-22.2h5.82l4.47,15.57h.06l4.5-15.57h5.85l-7.44,22.2h-5.85Z"/>
      <path class="cls-1" d="M596.02,60.11c0-6.87,4.95-12.03,11.7-12.03s11.73,5.01,11.73,11.37-5.1,11.67-11.46,11.67-11.97-4.44-11.97-11.01ZM613.78,59.63c0-3.48-2.49-6.57-6.06-6.57s-6.03,2.97-6.03,6.48,2.49,6.6,6.12,6.6,5.97-2.97,5.97-6.51Z"/>
      <path class="cls-1" d="M625.04,70.7v-5.1h5.19v5.1h-5.19Z"/>
    </g>
  </g>
</svg>