<?xml version="1.0" encoding="UTF-8"?>
<svg id="Capa_2" data-name="Capa 2" xmlns="http://www.w3.org/2000/svg" viewBox="0 0 614.09 24.21">
  <defs>
    <style>
      .cls-1 {
        fill: #fff;
      }
    </style>
  </defs>
  <g id="Capa_1-2" data-name="Capa 1">
    <g>
      <path class="cls-1" d="M15.2,7.51c0,1.03-.18,1.98-.54,2.86-.36.88-.86,1.64-1.51,2.29-.8.8-1.75,1.4-2.84,1.8-1.09.4-2.47.6-4.14.6h-3.09v8.66H0V.48h6.3c1.39,0,2.58.12,3.54.35s1.83.6,2.58,1.1c.88.59,1.57,1.33,2.05,2.22.48.88.73,2,.73,3.36ZM11.99,7.58c0-.8-.14-1.5-.42-2.09-.28-.59-.71-1.08-1.28-1.45-.5-.32-1.07-.55-1.71-.69-.64-.14-1.45-.21-2.43-.21h-3.06v9.29h2.61c1.25,0,2.26-.11,3.04-.34.78-.22,1.41-.58,1.9-1.07.49-.5.83-1.02,1.04-1.58.2-.55.3-1.17.3-1.86Z"/>
      <path class="cls-1" d="M41.09,14.39c0,1.69-.18,3.15-.55,4.41-.37,1.25-.97,2.3-1.82,3.13-.8.79-1.74,1.37-2.81,1.73s-2.32.55-3.75.55-2.73-.19-3.81-.58-1.99-.95-2.73-1.7c-.84-.85-1.45-1.88-1.82-3.09s-.55-2.69-.55-4.45V.48h3.09v14.06c0,1.26.09,2.25.26,2.98.17.73.46,1.39.87,1.98.46.68,1.08,1.19,1.87,1.53s1.73.51,2.83.51,2.06-.17,2.84-.51,1.41-.85,1.87-1.54c.41-.59.69-1.27.87-2.04s.26-1.71.26-2.85V.48h3.09v13.91Z"/>
      <path class="cls-1" d="M66.01,23.72h-14.7V.48h3.09v20.49h11.61v2.75Z"/>
      <path class="cls-1" d="M90.31,17.09c0,.91-.21,1.8-.63,2.68-.42.88-1.01,1.63-1.77,2.25-.83.67-1.8,1.19-2.91,1.56s-2.44.56-4,.56c-1.68,0-3.18-.16-4.52-.47s-2.7-.78-4.08-1.39v-3.87h.22c1.18.98,2.53,1.73,4.07,2.26,1.54.53,2.99.8,4.34.8,1.91,0,3.4-.36,4.47-1.08s1.6-1.67,1.6-2.87c0-1.03-.25-1.79-.76-2.28-.5-.49-1.27-.87-2.3-1.14-.78-.21-1.63-.38-2.54-.51s-1.88-.31-2.89-.52c-2.06-.44-3.59-1.18-4.58-2.24-.99-1.06-1.49-2.43-1.49-4.13,0-1.95.82-3.54,2.47-4.78,1.64-1.24,3.73-1.86,6.26-1.86,1.63,0,3.13.16,4.49.47,1.36.31,2.57.7,3.62,1.15v3.65h-.22c-.88-.75-2.05-1.37-3.49-1.87-1.44-.49-2.92-.74-4.42-.74-1.65,0-2.98.34-3.99,1.03-1,.69-1.51,1.57-1.51,2.65,0,.97.25,1.73.75,2.28.5.55,1.38.97,2.64,1.26.67.15,1.61.32,2.84.53,1.23.21,2.27.42,3.12.64,1.73.46,3.03,1.15,3.9,2.08.87.93,1.31,2.22,1.31,3.89Z"/>
      <path class="cls-1" d="M117.6,23.72h-3.29l-2.28-6.48h-10.05l-2.28,6.48h-3.14L105.02.48h4.12l8.46,23.24ZM111.07,14.59l-4.07-11.41-4.09,11.41h8.16Z"/>
      <path class="cls-1" d="M155.08,7.51c0,1.03-.18,1.98-.54,2.86-.36.88-.86,1.64-1.51,2.29-.8.8-1.75,1.4-2.84,1.8-1.09.4-2.47.6-4.14.6h-3.09v8.66h-3.09V.48h6.3c1.39,0,2.58.12,3.54.35s1.83.6,2.58,1.1c.88.59,1.57,1.33,2.05,2.22.48.88.73,2,.73,3.36ZM151.86,7.58c0-.8-.14-1.5-.42-2.09-.28-.59-.71-1.08-1.28-1.45-.5-.32-1.07-.55-1.71-.69-.64-.14-1.45-.21-2.43-.21h-3.06v9.29h2.61c1.25,0,2.26-.11,3.04-.34.78-.22,1.41-.58,1.9-1.07.49-.5.83-1.02,1.04-1.58.2-.55.3-1.17.3-1.86Z"/>
      <path class="cls-1" d="M181.01,23.72h-3.29l-2.28-6.48h-10.05l-2.28,6.48h-3.14L168.43.48h4.12l8.46,23.24ZM174.49,14.59l-4.07-11.41-4.09,11.41h8.16Z"/>
      <path class="cls-1" d="M208.09,23.72h-4.01l-7.77-9.24h-4.35v9.24h-3.09V.48h6.51c1.41,0,2.58.09,3.51.27.94.18,1.78.51,2.53.98.84.53,1.5,1.2,1.97,2.01.47.81.71,1.83.71,3.07,0,1.68-.42,3.08-1.26,4.21s-2,1.98-3.48,2.55l8.74,10.16ZM200.86,7.02c0-.67-.12-1.26-.35-1.77s-.62-.95-1.16-1.3c-.45-.3-.98-.51-1.59-.63-.61-.12-1.34-.18-2.17-.18h-3.64v8.77h3.12c.98,0,1.83-.09,2.56-.26.73-.17,1.35-.49,1.86-.96.47-.44.81-.94,1.04-1.51.22-.57.34-1.29.34-2.16Z"/>
      <path class="cls-1" d="M233.72,23.72h-3.29l-2.28-6.48h-10.05l-2.28,6.48h-3.14L221.15.48h4.12l8.46,23.24ZM227.2,14.59l-4.07-11.41-4.09,11.41h8.16Z"/>
      <path class="cls-1" d="M273.33,3.15c.95,1.04,1.67,2.32,2.18,3.82.5,1.51.76,3.22.76,5.13s-.26,3.63-.77,5.14c-.51,1.51-1.24,2.78-2.16,3.78-.96,1.05-2.09,1.84-3.39,2.37-1.31.53-2.8.8-4.47.8s-3.12-.27-4.46-.81-2.47-1.33-3.41-2.36-1.66-2.29-2.16-3.79c-.5-1.5-.76-3.21-.76-5.13s.25-3.59.75-5.1,1.23-2.79,2.18-3.86c.92-1.02,2.05-1.8,3.41-2.34s2.84-.81,4.44-.81,3.16.27,4.49.82c1.33.55,2.45,1.32,3.38,2.33ZM273.05,12.11c0-3.02-.68-5.35-2.03-6.98s-3.2-2.46-5.54-2.46-4.22.82-5.56,2.46c-1.35,1.64-2.02,3.97-2.02,6.98s.69,5.38,2.06,7c1.37,1.62,3.21,2.43,5.53,2.43s4.15-.81,5.52-2.43c1.37-1.62,2.05-3.95,2.05-7Z"/>
      <path class="cls-1" d="M303.01,16.57c0,1.16-.22,2.17-.66,3.06-.44.88-1.03,1.61-1.76,2.18-.87.69-1.83,1.18-2.88,1.47-1.04.29-2.38.44-3.99.44h-8.24V.48h6.88c1.7,0,2.96.06,3.81.19.84.12,1.65.39,2.42.78.85.45,1.47,1.02,1.86,1.72s.58,1.54.58,2.52c0,1.1-.28,2.04-.84,2.82-.56.78-1.31,1.4-2.25,1.87v.12c1.57.32,2.81,1.01,3.71,2.07.91,1.06,1.36,2.39,1.36,4ZM297.81,6.1c0-.56-.09-1.04-.28-1.42-.19-.39-.49-.7-.9-.94-.49-.28-1.08-.46-1.78-.52-.7-.07-1.56-.1-2.59-.1h-3.68v6.71h4c.97,0,1.74-.05,2.31-.15.57-.1,1.1-.3,1.59-.62.49-.31.83-.72,1.04-1.21.2-.49.3-1.08.3-1.76ZM299.79,16.7c0-.94-.14-1.68-.42-2.23-.28-.55-.79-1.02-1.53-1.4-.5-.26-1.11-.43-1.82-.51s-1.58-.12-2.6-.12h-4.85v8.65h4.09c1.35,0,2.46-.07,3.32-.21.86-.14,1.57-.4,2.12-.77.58-.41,1.01-.87,1.28-1.39s.41-1.19.41-2.01Z"/>
      <path class="cls-1" d="M327.35,3.23h-8.3v20.49h-3.09V3.23h-8.3V.48h19.7v2.75Z"/>
      <path class="cls-1" d="M350.1,23.72h-15.31V.48h15.31v2.75h-12.22v6.37h12.22v2.75h-12.22v8.63h12.22v2.75Z"/>
      <path class="cls-1" d="M377.05,23.72h-3.82l-11.02-20.79v20.79h-2.89V.48h4.79l10.05,18.98V.48h2.89v23.24Z"/>
      <path class="cls-1" d="M402.86,23.72h-15.31V.48h15.31v2.75h-12.22v6.37h12.22v2.75h-12.22v8.63h12.22v2.75Z"/>
      <path class="cls-1" d="M431.31,23.72h-4.01l-7.77-9.24h-4.35v9.24h-3.09V.48h6.51c1.41,0,2.58.09,3.51.27.94.18,1.78.51,2.53.98.84.53,1.5,1.2,1.97,2.01.47.81.71,1.83.71,3.07,0,1.68-.42,3.08-1.26,4.21s-2,1.98-3.48,2.55l8.74,10.16ZM424.08,7.02c0-.67-.12-1.26-.35-1.77s-.62-.95-1.16-1.3c-.45-.3-.98-.51-1.59-.63-.61-.12-1.34-.18-2.17-.18h-3.64v8.77h3.12c.98,0,1.83-.09,2.56-.26.73-.17,1.35-.49,1.86-.96.47-.44.81-.94,1.04-1.51.22-.57.34-1.29.34-2.16Z"/>
      <path class="cls-1" d="M469.63,3.23h-8.3v20.49h-3.09V3.23h-8.3V.48h19.7v2.75Z"/>
      <path class="cls-1" d="M494.57,14.39c0,1.69-.18,3.15-.55,4.41-.37,1.25-.97,2.3-1.82,3.13-.8.79-1.74,1.37-2.81,1.73s-2.32.55-3.75.55-2.73-.19-3.81-.58-1.99-.95-2.73-1.7c-.84-.85-1.45-1.88-1.82-3.09s-.55-2.69-.55-4.45V.48h3.09v14.06c0,1.26.09,2.25.26,2.98.17.73.46,1.39.87,1.98.46.68,1.08,1.19,1.87,1.53s1.73.51,2.83.51,2.06-.17,2.84-.51,1.41-.85,1.87-1.54c.41-.59.69-1.27.87-2.04s.26-1.71.26-2.85V.48h3.09v13.91Z"/>
      <path class="cls-1" d="M534.06,3.23h-11.75v6.55h10.1v2.75h-10.1v11.19h-3.09V.48h14.84v2.75Z"/>
      <path class="cls-1" d="M559.23,3.15c.95,1.04,1.67,2.32,2.18,3.82.5,1.51.76,3.22.76,5.13s-.26,3.63-.77,5.14c-.51,1.51-1.24,2.78-2.16,3.78-.96,1.05-2.09,1.84-3.39,2.37-1.31.53-2.8.8-4.47.8s-3.12-.27-4.46-.81-2.47-1.33-3.41-2.36-1.66-2.29-2.16-3.79c-.5-1.5-.76-3.21-.76-5.13s.25-3.59.75-5.1,1.23-2.79,2.18-3.86c.92-1.02,2.05-1.8,3.41-2.34s2.84-.81,4.44-.81,3.16.27,4.49.82c1.33.55,2.45,1.32,3.38,2.33ZM558.95,12.11c0-3.02-.68-5.35-2.03-6.98s-3.2-2.46-5.54-2.46-4.22.82-5.56,2.46c-1.35,1.64-2.02,3.97-2.02,6.98s.69,5.38,2.06,7c1.37,1.62,3.21,2.43,5.53,2.43s4.15-.81,5.52-2.43c1.37-1.62,2.05-3.95,2.05-7Z"/>
      <path class="cls-1" d="M587.18,3.23h-8.3v20.49h-3.09V3.23h-8.3V.48h19.7v2.75Z"/>
      <path class="cls-1" d="M611.16,3.15c.95,1.04,1.67,2.32,2.18,3.82.5,1.51.76,3.22.76,5.13s-.26,3.63-.77,5.14c-.51,1.51-1.24,2.78-2.16,3.78-.96,1.05-2.09,1.84-3.39,2.37-1.31.53-2.8.8-4.47.8s-3.12-.27-4.46-.81-2.47-1.33-3.41-2.36-1.66-2.29-2.16-3.79c-.5-1.5-.76-3.21-.76-5.13s.25-3.59.75-5.1,1.23-2.79,2.18-3.86c.92-1.02,2.05-1.8,3.41-2.34s2.84-.81,4.44-.81,3.16.27,4.49.82c1.33.55,2.45,1.32,3.38,2.33ZM610.88,12.11c0-3.02-.68-5.35-2.03-6.98s-3.2-2.46-5.54-2.46-4.22.82-5.56,2.46c-1.35,1.64-2.02,3.97-2.02,6.98s.69,5.38,2.06,7c1.37,1.62,3.21,2.43,5.53,2.43s4.15-.81,5.52-2.43c1.37-1.62,2.05-3.95,2.05-7Z"/>
    </g>
  </g>
</svg>