<?xml version="1.0" encoding="UTF-8"?>
<svg id="Capa_2" data-name="Capa 2" xmlns="http://www.w3.org/2000/svg" viewBox="0 0 729.25 71.08">
  <defs>
    <style>
      .cls-1 {
        fill: #fff;
      }
    </style>
  </defs>
  <g id="Capa_1-2" data-name="Capa 1">
    <g>
      <path class="cls-1" d="M19.42,30.01h-2.9V11.22l-6.06,12.79h-1.73L2.71,11.22v18.79H0V8.2h3.96l5.82,12.14,5.62-12.14h4.03v21.81Z"/>
      <path class="cls-1" d="M46.54,30.01h-3.09l-2.14-6.08h-9.43l-2.14,6.08h-2.94l7.94-21.81h3.87l7.94,21.81ZM40.41,21.45l-3.82-10.71-3.84,10.71h7.66Z"/>
      <path class="cls-1" d="M70.54,30.01h-3.59l-10.34-19.51v19.51h-2.71V8.2h4.5l9.43,17.81V8.2h2.71v21.81Z"/>
      <path class="cls-1" d="M95.95,10.78h-7.79v19.23h-2.9V10.78h-7.79v-2.58h18.49v2.58Z"/>
      <path class="cls-1" d="M117.31,30.01h-14.37V8.2h14.37v2.58h-11.47v5.98h11.47v2.58h-11.47v8.1h11.47v2.58ZM114.55,0l-4,5.48h-2.18l2.62-5.48h3.56Z"/>
      <path class="cls-1" d="M142.6,30.01h-3.59l-10.34-19.51v19.51h-2.71V8.2h4.5l9.43,17.81V8.2h2.71v21.81Z"/>
      <path class="cls-1" d="M180.27,14.79c0,.97-.17,1.86-.51,2.69s-.81,1.54-1.41,2.15c-.75.75-1.64,1.32-2.67,1.69s-2.32.56-3.88.56h-2.9v8.13h-2.9V8.2h5.92c1.31,0,2.42.11,3.33.33s1.71.56,2.42,1.03c.83.56,1.47,1.25,1.93,2.08s.68,1.88.68,3.15ZM177.25,14.87c0-.75-.13-1.41-.4-1.96s-.66-1.01-1.2-1.36c-.47-.3-1-.52-1.6-.65s-1.36-.2-2.28-.2h-2.87v8.72h2.45c1.17,0,2.12-.1,2.86-.31s1.33-.54,1.79-1c.46-.47.78-.96.97-1.48s.29-1.1.29-1.74Z"/>
      <path class="cls-1" d="M206.2,30.01h-3.76l-7.29-8.67h-4.09v8.67h-2.9V8.2h6.11c1.32,0,2.42.09,3.3.26s1.67.48,2.37.92c.79.5,1.41,1.13,1.85,1.88s.67,1.72.67,2.88c0,1.57-.4,2.89-1.19,3.95s-1.88,1.86-3.27,2.4l8.2,9.54ZM199.42,14.34c0-.62-.11-1.18-.33-1.66s-.58-.89-1.09-1.22c-.42-.28-.92-.48-1.49-.59s-1.25-.17-2.04-.17h-3.41v8.23h2.93c.92,0,1.72-.08,2.4-.24s1.26-.46,1.74-.9c.44-.41.76-.88.97-1.41s.31-1.21.31-2.03Z"/>
      <path class="cls-1" d="M227.43,30.01h-14.37V8.2h14.37v2.58h-11.47v5.98h11.47v2.58h-11.47v8.1h11.47v2.58Z"/>
      <path class="cls-1" d="M251.94,23.79c0,.85-.2,1.69-.59,2.52s-.95,1.53-1.66,2.11c-.78.62-1.69,1.11-2.73,1.46s-2.29.53-3.76.53c-1.57,0-2.99-.15-4.24-.44s-2.53-.73-3.83-1.3v-3.63h.21c1.1.92,2.38,1.63,3.82,2.12s2.8.75,4.07.75c1.8,0,3.2-.34,4.2-1.01s1.5-1.57,1.5-2.7c0-.97-.24-1.68-.71-2.14s-1.19-.82-2.16-1.07c-.73-.2-1.53-.36-2.38-.48s-1.76-.29-2.72-.48c-1.93-.41-3.37-1.11-4.3-2.1s-1.4-2.28-1.4-3.87c0-1.83.77-3.32,2.31-4.49s3.5-1.75,5.87-1.75c1.53,0,2.94.15,4.22.44s2.41.65,3.4,1.08v3.43h-.21c-.83-.7-1.92-1.29-3.27-1.75s-2.74-.7-4.15-.7c-1.55,0-2.8.32-3.74.97s-1.41,1.47-1.41,2.49c0,.91.23,1.62.7,2.14s1.29.91,2.48,1.19c.62.14,1.51.3,2.67.5s2.13.4,2.93.6c1.62.43,2.84,1.08,3.66,1.95s1.23,2.08,1.23,3.65Z"/>
      <path class="cls-1" d="M268.34,30.01h-8.61v-2.23h2.86V10.43h-2.86v-2.23h8.61v2.23h-2.86v17.36h2.86v2.23Z"/>
      <path class="cls-1" d="M293.59,10.71c.89.98,1.57,2.17,2.04,3.59s.71,3.02.71,4.82-.24,3.41-.73,4.83-1.16,2.6-2.03,3.55c-.9.99-1.96,1.73-3.19,2.23s-2.62.75-4.2.75-2.93-.25-4.18-.76-2.32-1.25-3.2-2.21-1.56-2.15-2.03-3.56-.71-3.01-.71-4.82.23-3.37.7-4.78,1.15-2.62,2.05-3.63c.86-.96,1.93-1.69,3.2-2.2s2.66-.76,4.17-.76,2.97.26,4.21.77,2.3,1.24,3.17,2.19ZM293.33,19.12c0-2.83-.63-5.02-1.9-6.56s-3-2.31-5.2-2.31-3.96.77-5.22,2.31-1.9,3.72-1.9,6.56.64,5.05,1.93,6.57,3.02,2.28,5.19,2.28,3.89-.76,5.18-2.28,1.93-3.71,1.93-6.57Z"/>
      <path class="cls-1" d="M321.64,30.01h-3.59l-10.34-19.51v19.51h-2.71V8.2h4.5l9.43,17.81V8.2h2.71v21.81Z"/>
      <path class="cls-1" d="M348.69,30.01h-3.09l-2.14-6.08h-9.43l-2.14,6.08h-2.94l7.94-21.81h3.87l7.94,21.81ZM342.57,21.45l-3.82-10.71-3.84,10.71h7.66Z"/>
      <path class="cls-1" d="M374.49,19.13c0,1.98-.43,3.78-1.3,5.39-.86,1.61-2.01,2.86-3.45,3.75-1,.62-2.11,1.06-3.33,1.33-1.23.27-2.84.41-4.84.41h-5.51V8.2h5.45c2.13,0,3.82.15,5.08.46,1.25.31,2.32.73,3.19,1.27,1.48.93,2.64,2.16,3.47,3.71s1.25,3.37,1.25,5.49ZM371.45,19.09c0-1.71-.3-3.15-.89-4.32s-1.48-2.09-2.67-2.77c-.86-.49-1.77-.83-2.74-1.02s-2.12-.29-3.47-.29h-2.72v16.83h2.72c1.4,0,2.62-.1,3.65-.31,1.04-.21,1.99-.59,2.86-1.14,1.08-.69,1.9-1.61,2.44-2.74.54-1.13.81-2.55.81-4.25Z"/>
      <path class="cls-1" d="M400.43,30.01h-3.09l-2.14-6.08h-9.43l-2.14,6.08h-2.94l7.94-21.81h3.87l7.94,21.81ZM394.3,21.45l-3.82-10.71-3.84,10.71h7.66Z"/>
      <path class="cls-1" d="M435.14,30.01h-13.8V8.2h2.9v19.23h10.9v2.58Z"/>
      <path class="cls-1" d="M459.29,30.01h-3.09l-2.14-6.08h-9.43l-2.14,6.08h-2.94l7.94-21.81h3.87l7.94,21.81ZM453.17,21.45l-3.82-10.71-3.84,10.71h7.66Z"/>
      <path class="cls-1" d="M487.89,30.01h-8.61v-2.23h2.86V10.43h-2.86v-2.23h8.61v2.23h-2.86v17.36h2.86v2.23Z"/>
      <path class="cls-1" d="M516.31,30.01h-2.9V11.22l-6.06,12.79h-1.73l-6.02-12.79v18.79h-2.71V8.2h3.96l5.82,12.14,5.62-12.14h4.03v21.81Z"/>
      <path class="cls-1" d="M543.42,30.01h-3.09l-2.14-6.08h-9.43l-2.14,6.08h-2.94l7.94-21.81h3.87l7.94,21.81ZM537.3,21.45l-3.82-10.71-3.84,10.71h7.66Z"/>
      <path class="cls-1" d="M568.98,28.4c-1.19.55-2.49,1.02-3.9,1.43-1.41.4-2.78.61-4.09.61-1.7,0-3.26-.23-4.67-.7s-2.62-1.17-3.62-2.11c-1.01-.95-1.78-2.13-2.33-3.55s-.82-3.08-.82-4.99c0-3.49,1.02-6.24,3.05-8.25,2.04-2.02,4.83-3.02,8.39-3.02,1.24,0,2.51.15,3.8.45s2.69.8,4.18,1.52v3.44h-.26c-.3-.23-.74-.54-1.32-.92s-1.14-.7-1.7-.95c-.67-.3-1.44-.55-2.29-.75-.86-.2-1.82-.3-2.91-.3-2.44,0-4.37.78-5.79,2.35-1.42,1.57-2.13,3.69-2.13,6.36,0,2.82.74,5.02,2.23,6.58s3.51,2.35,6.06,2.35c.94,0,1.87-.09,2.81-.28.93-.19,1.75-.42,2.45-.72v-5.35h-5.84v-2.55h8.72v9.36Z"/>
      <path class="cls-1" d="M592.47,30.01h-14.37V8.2h14.37v2.58h-11.47v5.98h11.47v2.58h-11.47v8.1h11.47v2.58Z"/>
      <path class="cls-1" d="M617.76,30.01h-3.59l-10.34-19.51v19.51h-2.71V8.2h4.5l9.43,17.81V8.2h2.71v21.81Z"/>
      <path class="cls-1" d="M655.43,14.79c0,.97-.17,1.86-.51,2.69-.34.83-.81,1.54-1.41,2.15-.75.75-1.64,1.32-2.67,1.69s-2.32.56-3.88.56h-2.9v8.13h-2.9V8.2h5.92c1.31,0,2.42.11,3.33.33s1.71.56,2.42,1.03c.83.56,1.47,1.25,1.93,2.08.46.83.68,1.88.68,3.15ZM652.42,14.87c0-.75-.13-1.41-.4-1.96s-.66-1.01-1.2-1.36c-.47-.3-1-.52-1.6-.65-.6-.13-1.36-.2-2.28-.2h-2.87v8.72h2.45c1.17,0,2.12-.1,2.86-.31s1.33-.54,1.79-1c.46-.47.78-.96.97-1.48.19-.52.29-1.1.29-1.74Z"/>
      <path class="cls-1" d="M679.78,30.01h-3.09l-2.14-6.08h-9.43l-2.14,6.08h-2.94l7.94-21.81h3.87l7.94,21.81ZM673.66,21.45l-3.82-10.71-3.84,10.71h7.66Z"/>
      <path class="cls-1" d="M705.19,30.01h-3.76l-7.29-8.67h-4.09v8.67h-2.9V8.2h6.11c1.32,0,2.42.09,3.3.26s1.67.48,2.37.92c.79.5,1.41,1.13,1.85,1.88.44.76.67,1.72.67,2.88,0,1.57-.4,2.89-1.19,3.95s-1.88,1.86-3.27,2.4l8.2,9.54ZM698.41,14.34c0-.62-.11-1.18-.33-1.66-.22-.48-.58-.89-1.09-1.22-.42-.28-.92-.48-1.49-.59s-1.25-.17-2.04-.17h-3.41v8.23h2.93c.92,0,1.72-.08,2.4-.24s1.26-.46,1.74-.9c.44-.41.76-.88.97-1.41s.32-1.21.32-2.03Z"/>
      <path class="cls-1" d="M729.25,30.01h-3.09l-2.14-6.08h-9.43l-2.14,6.08h-2.94l7.94-21.81h3.87l7.94,21.81ZM723.13,21.45l-3.82-10.71-3.84,10.71h7.66Z"/>
      <path class="cls-1" d="M72.64,69.01c-1.19.55-2.49,1.02-3.9,1.43-1.41.41-2.78.61-4.09.61-1.7,0-3.26-.23-4.67-.7s-2.62-1.17-3.62-2.11c-1.01-.95-1.78-2.13-2.33-3.55-.55-1.42-.82-3.08-.82-4.99,0-3.49,1.02-6.24,3.05-8.25s4.83-3.03,8.39-3.03c1.24,0,2.51.15,3.8.45s2.69.8,4.18,1.52v3.44h-.26c-.3-.23-.74-.54-1.32-.92s-1.14-.7-1.7-.95c-.67-.3-1.44-.55-2.29-.75-.85-.2-1.82-.3-2.91-.3-2.44,0-4.37.78-5.79,2.35-1.42,1.57-2.13,3.69-2.13,6.37,0,2.82.74,5.02,2.23,6.58,1.48,1.57,3.51,2.35,6.06,2.35.94,0,1.87-.09,2.81-.28s1.75-.42,2.45-.72v-5.35h-5.84v-2.55h8.72v9.36Z"/>
      <path class="cls-1" d="M98.18,61.87c0,1.58-.17,2.96-.52,4.14s-.92,2.16-1.71,2.94c-.75.74-1.63,1.28-2.64,1.63s-2.18.51-3.52.51-2.56-.18-3.57-.54-1.87-.89-2.56-1.6c-.79-.8-1.36-1.77-1.71-2.9s-.52-2.52-.52-4.17v-13.05h2.9v13.2c0,1.18.08,2.11.24,2.8s.43,1.3.81,1.86c.43.63,1.01,1.11,1.75,1.44s1.62.48,2.66.48,1.93-.16,2.67-.48,1.32-.8,1.76-1.44c.38-.56.65-1.19.81-1.91.16-.72.24-1.61.24-2.67v-13.27h2.9v13.05Z"/>
      <path class="cls-1" d="M124.82,70.62h-3.09l-2.14-6.08h-9.43l-2.14,6.08h-2.94l7.94-21.81h3.87l7.94,21.81ZM118.7,62.06l-3.82-10.71-3.84,10.71h7.66Z"/>
      <path class="cls-1" d="M150.23,70.62h-3.76l-7.29-8.67h-4.09v8.67h-2.9v-21.81h6.11c1.32,0,2.42.09,3.3.26s1.67.48,2.37.92c.79.5,1.41,1.13,1.85,1.88.44.76.67,1.72.67,2.88,0,1.57-.4,2.89-1.19,3.95-.79,1.06-1.88,1.86-3.27,2.4l8.2,9.54ZM143.45,54.95c0-.62-.11-1.18-.33-1.66-.22-.48-.58-.89-1.09-1.22-.42-.28-.92-.48-1.49-.59s-1.25-.17-2.04-.17h-3.41v8.23h2.93c.92,0,1.72-.08,2.4-.24.68-.16,1.26-.46,1.74-.9.44-.41.76-.88.97-1.41s.31-1.21.31-2.03Z"/>
      <path class="cls-1" d="M175.53,59.74c0,1.98-.43,3.78-1.3,5.39s-2.01,2.86-3.45,3.75c-1,.62-2.11,1.06-3.33,1.33s-2.84.41-4.84.41h-5.51v-21.81h5.45c2.13,0,3.82.15,5.08.46,1.25.31,2.32.73,3.19,1.27,1.48.93,2.64,2.16,3.47,3.71s1.25,3.37,1.25,5.49ZM172.5,59.7c0-1.71-.3-3.15-.89-4.32s-1.48-2.09-2.67-2.77c-.86-.49-1.77-.83-2.74-1.02-.97-.19-2.12-.29-3.47-.29h-2.72v16.83h2.72c1.4,0,2.61-.1,3.65-.31s1.99-.59,2.86-1.14c1.08-.69,1.9-1.61,2.44-2.74s.81-2.55.81-4.25Z"/>
      <path class="cls-1" d="M201.47,70.62h-3.09l-2.14-6.08h-9.43l-2.14,6.08h-2.94l7.94-21.81h3.87l7.94,21.81ZM195.35,62.06l-3.82-10.71-3.84,10.71h7.66Z"/>
      <path class="cls-1" d="M226.88,70.62h-3.76l-7.29-8.67h-4.09v8.67h-2.9v-21.81h6.11c1.32,0,2.42.09,3.3.26s1.67.48,2.37.92c.79.5,1.41,1.13,1.85,1.88.44.76.67,1.72.67,2.88,0,1.57-.4,2.89-1.19,3.95-.79,1.06-1.88,1.86-3.27,2.4l8.2,9.54ZM220.1,54.95c0-.62-.11-1.18-.33-1.66-.22-.48-.58-.89-1.09-1.22-.42-.28-.92-.48-1.49-.59s-1.25-.17-2.04-.17h-3.41v8.23h2.93c.92,0,1.72-.08,2.4-.24.68-.16,1.26-.46,1.74-.9.44-.41.76-.88.97-1.41s.31-1.21.31-2.03Z"/>
      <path class="cls-1" d="M247.55,70.62h-13.8v-21.81h2.9v19.23h10.9v2.58Z"/>
      <path class="cls-1" d="M271.7,70.62h-3.09l-2.14-6.08h-9.43l-2.14,6.08h-2.94l7.94-21.81h3.87l7.94,21.81ZM265.58,62.06l-3.82-10.71-3.84,10.71h7.66Z"/>
      <path class="cls-1" d="M306.98,70.62h-14.37v-21.81h14.37v2.58h-11.47v5.98h11.47v2.58h-11.47v8.1h11.47v2.58Z"/>
      <path class="cls-1" d="M332.28,70.62h-3.59l-10.34-19.51v19.51h-2.71v-21.81h4.5l9.43,17.81v-17.81h2.71v21.81Z"/>
      <path class="cls-1" d="M371.24,51.39h-7.79v19.23h-2.9v-19.23h-7.79v-2.58h18.49v2.58Z"/>
      <path class="cls-1" d="M394.64,61.87c0,1.58-.17,2.96-.52,4.14s-.92,2.16-1.71,2.94c-.75.74-1.63,1.28-2.64,1.63s-2.18.51-3.52.51-2.56-.18-3.57-.54-1.87-.89-2.56-1.6c-.79-.8-1.36-1.77-1.71-2.9s-.52-2.52-.52-4.17v-13.05h2.9v13.2c0,1.18.08,2.11.24,2.8.16.68.43,1.3.81,1.86.43.63,1.01,1.11,1.75,1.44s1.62.48,2.66.48,1.93-.16,2.67-.48,1.32-.8,1.76-1.44c.38-.56.65-1.19.81-1.91.16-.72.24-1.61.24-2.67v-13.27h2.9v13.05Z"/>
      <path class="cls-1" d="M436.21,59.74c0,1.98-.43,3.78-1.3,5.39-.86,1.61-2.01,2.86-3.45,3.75-1,.62-2.11,1.06-3.33,1.33-1.23.27-2.84.41-4.84.41h-5.51v-21.81h5.45c2.13,0,3.82.15,5.08.46,1.25.31,2.32.73,3.19,1.27,1.48.93,2.64,2.16,3.47,3.71s1.25,3.37,1.25,5.49ZM433.17,59.7c0-1.71-.3-3.15-.89-4.32s-1.48-2.09-2.67-2.77c-.86-.49-1.77-.83-2.74-1.02-.97-.19-2.12-.29-3.47-.29h-2.72v16.83h2.72c1.4,0,2.62-.1,3.65-.31,1.04-.21,2-.59,2.86-1.14,1.08-.69,1.9-1.61,2.44-2.74.54-1.13.81-2.55.81-4.25Z"/>
      <path class="cls-1" d="M452.64,70.62h-8.61v-2.23h2.86v-17.36h-2.86v-2.23h8.61v2.23h-2.86v17.36h2.86v2.23Z"/>
      <path class="cls-1" d="M477.48,64.4c0,.85-.2,1.69-.59,2.52-.39.83-.95,1.53-1.66,2.11-.78.62-1.69,1.11-2.73,1.46-1.04.35-2.29.53-3.76.53-1.57,0-2.99-.15-4.24-.44s-2.53-.73-3.83-1.3v-3.63h.21c1.1.92,2.38,1.63,3.82,2.12s2.8.75,4.07.75c1.8,0,3.2-.34,4.2-1.01s1.5-1.57,1.5-2.7c0-.97-.24-1.68-.71-2.14s-1.19-.82-2.16-1.07c-.73-.2-1.53-.36-2.38-.48s-1.76-.29-2.72-.48c-1.93-.41-3.37-1.11-4.3-2.1-.93-.99-1.4-2.28-1.4-3.88,0-1.83.77-3.32,2.31-4.49,1.54-1.17,3.5-1.75,5.87-1.75,1.53,0,2.94.15,4.22.44s2.41.65,3.4,1.08v3.43h-.21c-.83-.7-1.92-1.29-3.27-1.75-1.35-.46-2.74-.7-4.15-.7-1.55,0-2.8.32-3.74.97s-1.41,1.47-1.41,2.49c0,.91.23,1.62.7,2.14s1.29.91,2.48,1.19c.62.14,1.51.3,2.67.5s2.13.4,2.93.6c1.62.43,2.84,1.08,3.66,1.95s1.23,2.08,1.23,3.65Z"/>
      <path class="cls-1" d="M500.46,55.41c0,.97-.17,1.86-.51,2.69-.34.83-.81,1.54-1.41,2.15-.75.75-1.64,1.32-2.67,1.69s-2.32.56-3.88.56h-2.9v8.13h-2.9v-21.81h5.92c1.31,0,2.42.11,3.33.33.91.22,1.71.56,2.42,1.03.83.56,1.47,1.25,1.93,2.08.46.83.68,1.88.68,3.15ZM497.44,55.48c0-.75-.13-1.41-.4-1.96s-.66-1.01-1.2-1.36c-.47-.3-1-.52-1.6-.65-.6-.13-1.36-.2-2.28-.2h-2.87v8.72h2.45c1.17,0,2.12-.1,2.86-.31s1.33-.54,1.79-1c.46-.47.78-.96.97-1.48.19-.52.29-1.1.29-1.74Z"/>
      <path class="cls-1" d="M524.6,51.32c.89.98,1.57,2.17,2.04,3.59s.71,3.02.71,4.82-.24,3.41-.72,4.83c-.48,1.42-1.16,2.61-2.03,3.55-.9.99-1.96,1.73-3.19,2.23-1.23.5-2.62.75-4.2.75s-2.93-.25-4.18-.76c-1.26-.51-2.32-1.25-3.2-2.21s-1.56-2.15-2.03-3.56-.71-3.01-.71-4.82.23-3.37.7-4.78c.47-1.41,1.15-2.62,2.05-3.62.86-.96,1.93-1.69,3.2-2.2,1.28-.51,2.66-.76,4.17-.76s2.97.26,4.21.77c1.25.51,2.3,1.24,3.17,2.19ZM524.33,59.73c0-2.83-.63-5.02-1.9-6.55-1.27-1.54-3-2.31-5.2-2.31s-3.96.77-5.22,2.31c-1.27,1.54-1.9,3.72-1.9,6.55s.64,5.05,1.93,6.57,3.02,2.28,5.19,2.28,3.89-.76,5.18-2.28c1.28-1.52,1.93-3.71,1.93-6.57Z"/>
      <path class="cls-1" d="M551.86,64.4c0,.85-.2,1.69-.59,2.52-.39.83-.95,1.53-1.66,2.11-.78.62-1.69,1.11-2.73,1.46-1.04.35-2.29.53-3.76.53-1.57,0-2.99-.15-4.24-.44s-2.53-.73-3.83-1.3v-3.63h.21c1.1.92,2.38,1.63,3.82,2.12s2.8.75,4.07.75c1.8,0,3.2-.34,4.2-1.01s1.5-1.57,1.5-2.7c0-.97-.24-1.68-.71-2.14s-1.19-.82-2.16-1.07c-.73-.2-1.53-.36-2.38-.48s-1.76-.29-2.72-.48c-1.93-.41-3.37-1.11-4.3-2.1-.93-.99-1.4-2.28-1.4-3.88,0-1.83.77-3.32,2.31-4.49,1.54-1.17,3.5-1.75,5.87-1.75,1.53,0,2.94.15,4.22.44s2.41.65,3.4,1.08v3.43h-.21c-.83-.7-1.92-1.29-3.27-1.75-1.35-.46-2.74-.7-4.15-.7-1.55,0-2.8.32-3.74.97s-1.41,1.47-1.41,2.49c0,.91.23,1.62.7,2.14s1.29.91,2.48,1.19c.62.14,1.51.3,2.67.5s2.13.4,2.93.6c1.62.43,2.84,1.08,3.66,1.95s1.23,2.08,1.23,3.65Z"/>
      <path class="cls-1" d="M568.26,70.62h-8.61v-2.23h2.86v-17.36h-2.86v-2.23h8.61v2.23h-2.86v17.36h2.86v2.23Z"/>
      <path class="cls-1" d="M592.81,51.39h-7.79v19.23h-2.9v-19.23h-7.79v-2.58h18.49v2.58Z"/>
      <path class="cls-1" d="M607.48,70.62h-8.61v-2.23h2.86v-17.36h-2.86v-2.23h8.61v2.23h-2.86v17.36h2.86v2.23Z"/>
      <path class="cls-1" d="M633.67,48.81l-7.94,21.81h-3.87l-7.94-21.81h3.11l6.84,19.19,6.84-19.19h2.96Z"/>
      <path class="cls-1" d="M657.3,51.32c.89.98,1.57,2.17,2.04,3.59s.71,3.02.71,4.82-.24,3.41-.72,4.83c-.48,1.42-1.16,2.61-2.03,3.55-.9.99-1.96,1.73-3.19,2.23-1.23.5-2.62.75-4.2.75s-2.93-.25-4.18-.76c-1.26-.51-2.32-1.25-3.2-2.21s-1.56-2.15-2.03-3.56-.71-3.01-.71-4.82.23-3.37.7-4.78c.47-1.41,1.15-2.62,2.05-3.62.86-.96,1.93-1.69,3.2-2.2,1.28-.51,2.66-.76,4.17-.76s2.97.26,4.21.77c1.25.51,2.3,1.24,3.17,2.19ZM657.03,59.73c0-2.83-.63-5.02-1.9-6.55-1.27-1.54-3-2.31-5.2-2.31s-3.96.77-5.22,2.31c-1.27,1.54-1.9,3.72-1.9,6.55s.64,5.05,1.93,6.57,3.02,2.28,5.19,2.28,3.89-.76,5.18-2.28c1.28-1.52,1.93-3.71,1.93-6.57Z"/>
      <path class="cls-1" d="M672.01,70.62h-3.5v-4.17h3.5v4.17Z"/>
    </g>
  </g>
</svg>